<svg width="150" height="81" viewBox="0 0 150 81" fill="none" xmlns="http://www.w3.org/2000/svg">
<path d="M88.571 31.2175H61.4445V10.6503L75.0042 0.356018L88.5781 10.6503L88.571 31.2175ZM62.7037 29.9583H87.3118V11.2763L74.9971 1.94249L62.6966 11.2763L62.7037 29.9583Z" fill="#AD9D82"/>
<path d="M69.3128 15.7583H68.0536V30.5843H69.3128V15.7583Z" fill="#AD9D82"/>
<path d="M82.033 15.7583H80.7738V30.5843H82.033V15.7583Z" fill="#AD9D82"/>
<path d="M68.9121 5.55209L68.1511 6.55536L87.559 21.2761L88.32 20.2728L68.9121 5.55209Z" fill="#AD9D82"/>
<path d="M81.0868 5.54553L61.6846 20.2619L62.4455 21.2652L81.8478 6.54879L81.0868 5.54553Z" fill="#AD9D82"/>
<path d="M6.26662 51.9056C4.31732 51.429 3.13636 51.0662 3.13636 49.9492C3.13636 48.8323 4.18215 48.1778 5.98205 48.1778C7.19821 48.1862 8.38711 48.5389 9.4111 49.1951L9.70279 49.3872L10.5494 47.3312L10.3431 47.196C9.03828 46.3758 7.52298 45.9531 5.98205 45.9795C2.06212 45.9795 0.667728 48.064 0.667728 50.0204C0.667728 52.9301 3.33556 53.5775 5.47694 54.111C7.41201 54.5806 8.59297 54.9434 8.59297 56.0603C8.59297 57.1773 7.52584 57.7749 5.66191 57.7749C4.16794 57.7904 2.71478 57.2876 1.54989 56.352L1.25821 56.0817L0.297791 58.1164L0.461415 58.2657C1.93935 59.4376 3.78368 60.0499 5.66903 59.9945C8.15189 59.9945 11.0403 58.9416 11.0403 55.975C11.0403 53.0083 8.40089 52.4179 6.26662 51.9056Z" fill="white"/>
<path d="M22.4017 53.9688H28.961V51.7705H22.4017V48.3557H29.7649V46.1289H19.9259V59.8167H30.0281V57.5828H22.4017V53.9688Z" fill="white"/>
<path d="M43.2606 46.1289L37.0285 59.8024H39.611L41.0338 56.5441H47.5789L49.0017 59.8095H51.6198L45.3948 46.1289H43.2606ZM46.7252 54.4454H41.98L44.3348 49.0884L46.7252 54.4454Z" fill="white"/>
<path d="M64.2759 51.9056C62.3124 51.4219 61.1528 51.0662 61.1528 49.9492C61.1528 48.8323 62.1986 48.1778 63.9985 48.1778C65.2147 48.1862 66.4036 48.5389 67.4276 49.1951L67.7335 49.3872L68.5801 47.3312L68.3737 47.196C67.069 46.3758 65.5537 45.9531 64.0127 45.9795C60.0928 45.9795 58.6984 48.064 58.6984 50.0204C58.6984 52.9301 61.3662 53.5775 63.5076 54.111C65.4498 54.5806 66.6236 54.9434 66.6236 56.0603C66.6236 57.1773 65.5565 57.7749 63.6926 57.7749C62.1984 57.7916 60.7449 57.2886 59.5806 56.352L59.2889 56.0817L58.3214 58.1164L58.485 58.2657C59.9663 59.4365 61.8124 60.0485 63.6997 59.9945C66.1754 59.9945 69.0709 58.9416 69.0709 55.975C69.0709 53.0083 66.4102 52.4179 64.2759 51.9056Z" fill="white"/>
<path d="M75.8508 48.3557H80.3328V59.8167H82.7872V48.3557H87.2763V46.1289H75.8508V48.3557Z" fill="white"/>
<path d="M101.455 45.9795C97.3073 45.9795 94.1771 48.9888 94.1771 52.9656C94.1771 56.9425 97.3002 59.9518 101.455 59.9518C105.61 59.9518 108.711 56.9567 108.711 52.9656C108.711 48.9746 105.581 45.9795 101.455 45.9795ZM101.455 57.6966C100.522 57.6896 99.6124 57.4066 98.8402 56.8833C98.0681 56.3599 97.4682 55.6198 97.1161 54.756C96.764 53.8922 96.6755 52.9436 96.8618 52.0296C97.048 51.1156 97.5007 50.2772 98.1628 49.6201C98.8248 48.963 99.6665 48.5167 100.582 48.3373C101.497 48.1579 102.445 48.2535 103.306 48.612C104.167 48.9706 104.903 49.576 105.421 50.3521C105.938 51.1281 106.214 52.04 106.214 52.9728C106.226 53.5981 106.111 54.2193 105.875 54.7986C105.639 55.3779 105.288 55.9031 104.843 56.3424C104.398 56.7816 103.868 57.1257 103.285 57.3536C102.703 57.5815 102.08 57.6885 101.455 57.6681V57.6966Z" fill="white"/>
<path d="M127.059 55.3276L119.653 46.1289H117.675V59.8167H120.151V50.618L127.55 59.8167H129.528V46.1289H127.059V55.3276Z" fill="white"/>
<path d="M149.419 46.1289H139.58V48.3628H149.419V46.1289Z" fill="white"/>
<path d="M149.682 57.5828H139.58V59.8167H149.682V57.5828Z" fill="white"/>
<path d="M145.485 51.7705H139.58V53.9617H145.485V51.7705Z" fill="white"/>
<path d="M57.489 80.7325V78.1998H53.9959V80.7467H53.3271V74.9344H53.9959V77.588H57.489V74.97H58.2004V80.768L57.489 80.7325Z" fill="#AE9E83"/>
<path d="M68.7721 77.8299C68.7983 78.4302 68.6459 79.0248 68.3341 79.5384C68.0223 80.0521 67.5652 80.4618 67.0206 80.7156C66.476 80.9695 65.8683 81.0561 65.2744 80.9645C64.6806 80.873 64.1272 80.6074 63.6843 80.2013C63.2414 79.7953 62.9289 79.267 62.7863 78.6833C62.6437 78.0996 62.6773 77.4867 62.8831 76.9221C63.0888 76.3576 63.4574 75.8667 63.9421 75.5116C64.4268 75.1565 65.006 74.9532 65.6063 74.9273H65.7415C66.1311 74.9188 66.5185 74.9871 66.8817 75.1284C67.2449 75.2697 67.5767 75.4812 67.8581 75.7507C68.1396 76.0203 68.3652 76.3426 68.522 76.6994C68.6788 77.0561 68.7638 77.4403 68.7721 77.8299ZM63.3724 77.8299C63.3556 78.3039 63.4818 78.772 63.7347 79.1732C63.9876 79.5744 64.3555 79.8902 64.7904 80.0795C65.2253 80.2688 65.7071 80.3227 66.1731 80.2343C66.639 80.1459 67.0676 79.9193 67.403 79.5839C67.7384 79.2485 67.965 78.8199 68.0534 78.354C68.1418 77.888 68.0879 77.4062 67.8986 76.9713C67.7093 76.5364 67.3935 76.1686 66.9923 75.9156C66.5911 75.6627 66.123 75.5365 65.649 75.5533C65.052 75.5746 64.4852 75.8212 64.0627 76.2436C63.6403 76.6661 63.3936 77.2329 63.3724 77.8299Z" fill="#AE9E83"/>
<path d="M78.5471 80.7325V75.9517L76.4128 80.1206H76.0073L73.9086 75.9517V80.7325H73.2755V74.9344H74.0936L76.2278 79.1104L78.3621 74.9344H79.1731V80.7325H78.5471Z" fill="#AE9E83"/>
<path d="M84.9072 75.5747V77.4813H87.8169V78.1216H84.9072V80.1064H88.2865V80.7396H84.2456V74.9344H88.1798V75.5747H84.9072Z" fill="#AE9E83"/>
<path d="M96.5176 75.4537L96.2259 76.0798C95.7522 75.7615 95.1959 75.5884 94.6252 75.5818C93.9138 75.5818 93.3874 75.8735 93.3874 76.3572C93.3874 77.8441 96.6528 77.0686 96.6457 79.2029C96.6457 80.1776 95.792 80.7965 94.547 80.7965C93.723 80.7738 92.9379 80.441 92.3487 79.8645L92.6404 79.274C93.1584 79.7778 93.8461 80.0696 94.5683 80.0922C95.4078 80.0922 95.9343 79.7507 95.9343 79.1958C95.9343 77.6733 92.676 78.4844 92.676 76.407C92.676 75.4964 93.4799 74.9059 94.6822 74.9059C95.3335 74.9112 95.9699 75.1012 96.5176 75.4537Z" fill="#AE9E83"/>
</svg>
