<svg width="261" height="99" viewBox="0 0 261 99" fill="none" xmlns="http://www.w3.org/2000/svg">
<path d="M27.6106 19.1716L44.0092 33.5591C44.7827 34.3326 45.711 35.7249 46.1751 36.9626L46.3298 37.4267C47.4127 40.8302 47.5674 42.6866 46.6392 45.1619L46.1751 46.8636C45.4015 49.3389 44.9374 50.2671 43.5451 51.9689L43.081 52.433C42.3075 53.2065 41.2245 54.4441 40.451 55.063L39.2134 56.1459C38.4399 56.7647 37.0475 57.6929 35.9646 58.1571L32.8705 59.3947C31.9423 59.7041 30.2405 60.3229 28.8482 60.4776L26.5276 60.9417C25.29 61.0964 23.4335 61.2511 22.5053 61.2511H18.7924C17.5548 61.2511 16.0078 61.0964 14.9248 60.787L10.9025 59.8588C9.81958 59.5494 8.27254 59.0853 7.34432 58.4665L5.33316 57.2288C4.40494 56.61 3.1673 55.3724 2.70319 54.4441L1.92967 53.5159C1.31085 52.5877 0.846741 50.8859 0.846741 49.9577C0.846741 48.7201 1.31085 47.1731 1.62026 46.3995C3.1673 43.3055 7.34432 42.3772 10.7478 44.2337L11.2119 44.5431C12.1401 45.0072 13.0684 45.7807 13.3778 46.2448C13.9966 47.4825 13.9966 50.4218 13.2231 51.5048C12.4496 52.5877 11.2119 55.063 11.2119 55.5271C11.2119 56.61 13.5325 57.8476 16.3172 58.3118L17.0907 58.4665C19.8754 58.9306 21.113 58.9306 23.4335 58.4665L29.3123 57.2288C33.3346 56.61 36.1193 53.2065 36.1193 49.1842V48.8748C36.1193 47.6372 35.5005 46.2448 34.8817 45.3166L32.2517 41.7584C31.4782 40.8302 30.3952 39.5926 29.6217 38.6643L17.7095 27.0615C16.936 26.288 16.0078 24.8957 15.5436 23.9674L14.7701 21.8016C14.306 20.8733 13.9966 19.1716 13.9966 18.0887V16.3869C13.9966 15.304 14.306 13.7569 14.7701 12.674L15.0795 11.9005C16.1625 9.57994 17.5548 7.87819 19.5659 6.48585L21.2677 5.24823C22.0412 4.62941 23.743 4.01059 24.8259 3.54648L30.5499 1.99943C31.6329 1.69003 33.3346 1.53532 34.4175 1.53532H37.2022C38.2852 1.53532 39.9869 1.69003 40.9151 1.99943L43.8545 2.77296C44.9374 3.08236 46.4845 3.85589 47.258 4.4747L47.5674 4.62941C50.6615 6.94997 51.7444 10.5082 50.1974 13.2928C48.6503 15.9228 44.1639 16.6963 41.3792 14.9946C39.6775 13.9117 39.0587 12.2099 39.5228 9.27053L39.6775 7.72349C39.9869 5.09352 39.0587 4.31999 34.727 4.31999H33.3346C32.2517 4.31999 30.5499 4.6294 29.6217 4.93881L28.8482 5.09351C27.92 5.40292 26.5276 6.33115 25.7541 6.94997L24.9806 7.72349C23.1241 9.88935 22.8147 12.674 24.3618 15.4587L24.6712 15.9228C25.7541 17.0057 26.6823 18.2434 27.6106 19.1716ZM76.4971 12.2099L66.7507 49.9577C64.8943 56.9194 66.9054 59.24 72.0107 55.8365L73.0936 55.2177C74.3312 54.2894 76.1877 52.5877 77.1159 51.1954L81.1382 45.3166C82.0664 44.079 83.3041 41.7584 83.7682 40.3661L98.001 5.09351C98.9292 2.92765 99.3933 2.46355 101.869 2.46355H106.2C107.747 2.46355 108.985 2.77295 108.985 3.23707C108.985 3.54647 108.676 5.09351 108.366 6.64055L99.548 42.996C98.7745 46.5542 98.7745 47.9466 99.7027 51.1954L99.8574 52.433C101.404 58.3118 108.521 57.8476 113.162 51.5048L115.018 49.0295C115.947 47.7919 117.184 45.4713 117.803 44.079L122.754 32.9403C123.527 31.3932 124.301 28.918 124.765 27.5256L126.621 20.0998C128.168 14.8399 127.395 13.1381 123.218 10.3535C122.135 9.57994 121.207 8.65171 121.052 7.87819C120.433 5.86704 120.588 4.93881 121.671 3.23707C122.754 1.69002 124.301 0.916504 126.312 0.916504C129.096 0.916504 131.262 4.93881 131.262 9.73464V10.9723C131.262 12.674 130.953 14.9946 130.489 16.5416L126.312 33.5591C126.002 35.1061 125.074 37.4267 124.301 38.819L118.267 49.803C117.494 51.1954 115.947 53.0518 114.709 54.1347L110.687 57.6929C106.664 61.2511 100.94 62.1794 96.4539 60.0135L96.1445 59.8588C93.0504 58.4665 90.7299 55.063 89.8016 51.1954L89.4922 49.9577C89.3375 48.256 89.0281 45.7807 89.3375 44.2337L89.9563 37.8908C90.111 34.4873 90.111 34.4873 88.4093 37.5814L81.757 48.8748C79.9006 51.9689 77.7347 54.7536 74.95 56.61L72.7842 58.3118C67.5242 62.3341 60.0984 61.8699 57.0044 57.5382C55.4573 55.3724 55.3026 53.2065 56.3855 48.8748L65.6678 11.9005C67.3695 5.55763 65.3584 4.01059 61.0267 7.72349L60.872 7.87819C59.6343 8.96112 57.9326 10.9723 57.1591 12.2099L53.1368 18.8622C52.3632 20.2545 50.9709 21.3375 50.1974 21.3375C49.2691 21.3375 48.4956 21.1827 48.4956 21.1827C48.4956 21.028 49.1144 19.7904 49.7333 18.3981V18.2434C50.3521 16.6963 51.435 14.5305 52.3632 13.1381L54.8385 9.57994C59.3249 2.92766 67.9883 -0.475831 72.9389 2.30884C76.8065 4.32 77.7347 7.10468 76.4971 12.2099ZM189.741 5.71233L177.055 50.7312C176.745 51.9689 176.436 53.3612 176.436 53.8253C176.436 57.8476 181.387 57.3835 185.099 52.7424L187.265 50.1124C188.039 49.1842 189.276 47.4825 189.895 46.3995L192.68 40.8302C193.608 38.819 194.382 38.5096 195.465 39.1284C196.238 39.5925 196.238 39.5925 195.31 42.0678V42.2225C194.846 43.4601 194.072 45.3166 193.453 46.2448L190.514 51.5048C189.895 52.433 188.812 54.1347 187.884 55.063V55.2177C186.956 56.1459 185.409 57.3835 184.326 58.0023L180.768 60.1682C179.839 60.787 177.983 61.2511 176.745 61.2511C175.508 61.2511 173.651 60.9417 172.568 60.4776L171.95 60.1682C169.01 58.9306 166.38 55.2177 166.38 52.5877C166.38 52.2783 166.38 52.1236 166.226 52.1236C166.071 52.1236 165.607 52.8971 164.988 53.6706C164.369 54.5989 162.977 55.8365 161.894 56.7647L160.656 57.5382C159.573 58.3118 157.717 59.3947 156.479 59.8588L155.242 60.3229C152.302 61.4058 152.302 61.4058 149.672 61.4058H149.363C148.125 61.4058 146.269 61.2511 145.031 60.787L143.175 60.1682C141.937 59.8588 140.39 58.7759 139.462 58.0023L135.903 54.4441C135.13 53.5159 133.892 51.8142 133.428 50.5765L132.809 49.3389C131.726 46.7089 131.417 44.8525 131.417 41.7584V37.1173C131.417 35.8797 131.726 34.0232 132.191 32.7856L133.428 29.0727C133.738 27.835 134.511 25.9786 135.13 25.0504L138.533 19.3263C139.926 16.851 141.937 14.3758 144.103 12.5193L149.517 7.56879C150.446 6.79527 152.147 5.55762 153.23 5.09351L158.181 2.61825C160.501 1.53532 162.667 1.07121 165.761 1.07121H165.916C167.154 1.07121 169.01 1.53532 170.248 1.99943L171.021 2.15414C172.104 2.77295 173.651 3.85588 174.27 4.78411L175.508 6.48585C176.281 7.41408 176.9 8.49701 177.055 8.80641C177.209 9.11582 177.21 9.42523 177.364 9.42523C177.364 9.42523 177.828 8.49701 178.138 7.25937L179.066 4.4747C179.685 2.92766 180.458 2.30884 182.16 2.30884H188.348C189.586 2.30884 190.669 2.46355 190.669 2.77296C190.359 3.39177 190.05 4.6294 189.741 5.71233ZM148.589 22.111L142.71 43.7696C141.937 46.0901 141.937 47.3278 142.71 50.1124L142.865 50.7312C143.02 51.9689 143.793 53.6706 144.567 54.4441L144.722 54.5989C145.34 55.5271 146.733 56.61 147.661 56.9194L149.363 57.6929C151.529 58.4665 151.993 58.4665 154.313 57.6929L155.396 57.5382C156.479 57.0741 158.026 56.3006 158.954 55.5271L160.656 53.98C161.43 53.3612 162.667 51.9689 163.286 51.1954L165.143 48.5654C165.761 47.7919 166.38 46.2448 166.844 45.1619L170.248 36.1891C170.712 35.1061 171.176 33.5591 171.485 32.4762L174.58 19.7904C174.889 18.7075 175.044 17.0057 175.044 15.9228V13.6022C175.044 12.5193 174.734 10.8176 174.27 9.73464L173.961 9.27053C172.723 6.02174 169.784 4.16529 165.916 4.16529C163.131 4.16529 160.501 5.09351 158.8 6.64055L156.479 8.80641C155.706 9.57994 154.623 10.9723 154.159 11.9005L150.446 18.3981C149.517 19.481 148.899 21.028 148.589 22.111ZM200.26 2.61825L217.897 1.38062C219.134 1.22591 220.063 1.38062 220.063 1.69002C220.063 1.84473 219.908 3.23706 219.444 4.31999L217.433 11.7458C216.659 14.5305 216.659 14.5305 218.516 12.8287L225.323 6.48585C226.251 5.55763 227.952 4.4747 228.881 4.01059L232.594 2.46355C235.069 1.38062 235.688 1.22591 238.472 1.22591H239.246C240.484 1.22591 242.34 1.53532 243.578 1.99943L244.815 2.46355C246.053 2.92766 247.6 4.01058 248.373 5.09351L248.528 5.40293C250.23 7.56879 250.694 9.42523 250.694 12.674V13.2928C250.694 14.5305 250.539 16.3869 250.23 17.6246L240.948 52.7424C240.638 53.98 240.948 55.3724 241.721 55.8365C244.351 57.8476 248.373 56.4553 251.158 52.5877L252.396 50.886C253.169 49.6483 254.252 47.7919 254.716 46.7089L257.037 41.449C257.501 40.2114 257.965 39.2831 258.274 39.2831C259.048 39.2831 260.904 40.2114 260.904 40.6755C260.904 40.8302 260.44 41.9131 259.822 42.996L255.335 51.6595C254.716 52.7424 253.633 54.2894 252.705 55.063L249.147 58.1571C248.373 58.9306 246.517 59.8588 245.279 60.3229L244.196 60.6323C241.102 61.5605 237.854 61.5605 235.533 60.4776L235.378 60.3229C231.201 58.4665 229.964 55.063 231.356 49.6483L240.329 15.304C242.185 7.8782 238.163 4.16529 230.892 6.48585L229.809 6.79527C228.571 7.10468 226.87 8.1876 226.096 9.11583L220.217 15.1493C219.444 15.9228 218.206 17.6246 217.587 18.7075L213.41 27.835C212.791 28.918 212.173 30.9291 211.863 32.012L205.366 57.5382C204.902 59.7041 204.902 59.7041 202.581 59.7041H196.702C195.465 59.7041 194.536 59.5494 194.536 59.5494C194.536 59.5494 194.691 58.4665 195.155 57.3835L208.305 6.17645H199.177C197.94 6.17645 197.012 5.86704 197.012 5.55763C197.321 3.70118 198.249 2.77295 200.26 2.61825Z" fill="white"/>
<path d="M43.2357 83.0641L46.7939 81.6718H47.258V84.3018C47.8768 83.2188 48.4957 82.6 49.1145 82.1359C49.7333 81.6718 50.3521 81.5171 50.9709 81.5171C52.0539 81.5171 53.1368 81.9812 53.9103 82.9094C54.8385 83.9924 55.3026 85.3847 55.3026 87.2412C55.3026 89.2523 54.6838 90.7993 53.6009 92.1917C52.6727 93.2746 51.435 93.7387 50.0427 93.7387C49.4239 93.7387 48.9598 93.584 48.4957 93.4293C48.1862 93.2746 47.7221 93.1199 47.4127 92.6558V96.214C47.4127 96.9875 47.4127 97.4516 47.5674 97.761C47.7221 97.9157 47.8768 98.0704 48.0315 98.2251C48.341 98.3798 48.6504 98.3798 49.2692 98.3798V98.844H43.2357V98.3798H43.5451C44.0092 98.3798 44.3186 98.2251 44.7828 98.0704C44.9375 97.9157 45.0922 97.761 45.0922 97.6063C45.0922 97.4516 45.2469 96.8328 45.2469 96.0593V85.23C45.2469 84.4565 45.2469 83.9924 45.0922 83.8377C44.9375 83.6829 44.9375 83.5283 44.7828 83.3735C44.6281 83.2188 44.4733 83.2188 44.1639 83.2188C44.0092 83.2188 43.6998 83.2188 43.3904 83.3735L43.2357 83.0641ZM47.258 85.0753V89.407C47.258 90.3352 47.258 90.954 47.4127 91.2635C47.5674 91.7276 47.8768 92.1917 48.341 92.5011C48.8051 92.8105 49.4239 93.1199 50.0427 93.1199C50.8162 93.1199 51.5897 92.8105 52.0539 92.1917C52.6727 91.4182 53.1368 90.1805 53.1368 88.6335C53.1368 86.9317 52.8274 85.5394 52.0539 84.6112C51.5897 83.9924 50.8162 83.683 50.1974 83.683C49.7333 83.683 49.4239 83.8377 48.9598 83.9924C48.4957 83.8377 48.0315 84.3018 47.258 85.0753Z" fill="#AE9E83"/>
<path d="M60.2532 81.6722V84.3022C61.1814 82.6004 62.2643 81.6722 63.1926 81.6722C63.6567 81.6722 63.9661 81.8269 64.2755 82.1363C64.5849 82.4457 64.7396 82.7551 64.7396 83.0645C64.7396 83.3739 64.5849 83.6834 64.4302 83.8381C64.2755 83.9928 63.9661 84.1475 63.6567 84.1475C63.3473 84.1475 63.0379 83.9928 62.7284 83.6834C62.419 83.3739 62.1096 83.2192 61.9549 83.2192C61.8002 83.2192 61.6455 83.3739 61.4908 83.5287C61.1814 83.8381 60.7173 84.4569 60.2532 85.2304V90.645C60.2532 91.2639 60.4079 91.728 60.5626 92.0374C60.7173 92.1921 60.872 92.5015 61.1814 92.6562C61.4908 92.8109 61.8002 92.8109 62.419 92.8109V93.275H56.5403V92.8109C57.1591 92.8109 57.6232 92.6562 57.7779 92.5015C57.9326 92.3468 58.0873 92.1921 58.242 91.8827C58.242 91.728 58.242 91.2639 58.242 90.645V86.1586C58.242 84.7663 58.242 83.9928 58.0873 83.8381C57.9326 83.6834 57.9326 83.3739 57.7779 83.2192C57.6232 83.0645 57.4685 83.0645 57.1591 83.0645C56.8497 83.0645 56.5403 83.0645 56.2309 83.2192L56.0762 82.7551L59.4797 81.3628H60.2532V81.6722Z" fill="#AE9E83"/>
<path d="M71.0825 81.6719C72.7842 81.6719 74.1766 82.2907 75.2595 83.683C76.1877 84.766 76.6518 86.1583 76.6518 87.5506C76.6518 88.6336 76.3424 89.5618 75.8783 90.6447C75.4142 91.7277 74.6407 92.5012 73.8671 92.9653C72.9389 93.4294 72.0107 93.7388 70.9278 93.7388C69.226 93.7388 67.8337 93.12 66.7508 91.7276C65.8225 90.6447 65.5131 89.2524 65.5131 87.86C65.5131 86.7771 65.8225 85.6942 66.2866 84.766C66.7508 83.8377 67.5243 82.9095 68.2978 82.4454C69.226 81.8266 69.9995 81.6719 71.0825 81.6719ZM70.6184 82.4454C70.1542 82.4454 69.6901 82.6001 69.226 82.9095C68.7619 83.2189 68.4525 83.683 68.1431 84.3019C67.8337 84.9207 67.679 85.8489 67.679 86.7771C67.679 88.4789 67.9884 89.8712 68.6072 91.1088C69.226 92.3465 70.1542 92.9653 71.2372 92.9653C72.0107 92.9653 72.7842 92.6559 73.2483 92.0371C73.7124 91.4182 74.0219 90.1806 74.0219 88.6336C74.0219 86.6224 73.5577 85.0754 72.7842 83.8377C72.3201 82.7548 71.5466 82.4454 70.6184 82.4454Z" fill="#AE9E83"/>
<path d="M77.4253 83.0641L80.9835 81.6718H81.2929V84.3018C81.9118 83.2188 82.5306 82.6 83.1494 82.1359C83.7682 81.6718 84.387 81.5171 85.0058 81.5171C86.0888 81.5171 87.1717 81.9812 87.9452 82.9094C88.8734 83.9924 89.3375 85.3847 89.3375 87.2412C89.3375 89.2523 88.7187 90.7993 87.6358 92.1917C86.7076 93.2746 85.47 93.7387 84.0776 93.7387C83.4588 93.7387 82.9947 93.584 82.5306 93.4293C82.2212 93.2746 81.757 93.1199 81.4476 92.6558V96.214C81.4476 96.9875 81.4476 97.4516 81.6023 97.761C81.757 97.9157 81.9118 98.0704 82.0665 98.2251C82.3759 98.3798 82.6853 98.3798 83.3041 98.3798V98.844H77.2706V98.3798H77.58C78.0441 98.3798 78.3536 98.2251 78.8177 98.0704C78.9724 97.9157 79.1271 97.761 79.1271 97.6063C79.1271 97.4516 79.2818 96.8328 79.2818 96.0593V85.23C79.2818 84.4565 79.2818 83.9924 79.1271 83.8377C78.9724 83.6829 78.9724 83.5283 78.8177 83.3735C78.663 83.2188 78.5083 83.2188 78.1989 83.2188C78.0441 83.2188 77.7347 83.2188 77.4253 83.3735V83.0641ZM81.2929 85.0753V89.407C81.2929 90.3352 81.2929 90.954 81.4476 91.2635C81.6023 91.7276 81.9117 92.1917 82.3759 92.5011C82.84 92.8105 83.4588 93.1199 84.0776 93.1199C84.8511 93.1199 85.6247 92.8105 86.0888 92.1917C86.7076 91.4182 87.1717 90.1805 87.1717 88.6335C87.1717 86.9317 86.8623 85.5394 86.0888 84.6112C85.6247 83.9924 84.8511 83.683 84.2323 83.683C83.7682 83.683 83.4588 83.8377 82.9947 83.9924C82.5306 83.8377 82.0665 84.3018 81.2929 85.0753Z" fill="#AE9E83"/>
<path d="M92.8957 86.3129C92.8957 88.0147 93.3599 89.407 94.1334 90.3352C94.9069 91.2635 95.9898 91.7276 97.0728 91.7276C97.8463 91.7276 98.4651 91.5729 99.0839 91.1088C99.7027 90.6446 100.167 90.0258 100.476 88.9429L100.786 89.2523C100.631 90.3352 100.167 91.4182 99.2386 92.3464C98.4651 93.2746 97.3822 93.7387 96.1445 93.7387C94.7522 93.7387 93.6693 93.2746 92.5863 92.1917C91.6581 91.1088 91.194 89.7164 91.194 87.86C91.194 85.8488 91.6581 84.4565 92.741 83.2188C93.6693 82.1359 95.0616 81.5171 96.4539 81.5171C97.6916 81.5171 98.7745 81.9812 99.548 82.7547C100.322 83.5282 100.786 84.7659 100.786 86.1582H92.8957V86.3129ZM92.8957 85.5394H98.1557C98.1557 84.7659 98.001 84.3018 97.8463 83.9924C97.6916 83.5282 97.3822 83.2188 96.918 82.9094C96.4539 82.6 96.1445 82.4453 95.6804 82.4453C95.0616 82.4453 94.4428 82.7547 93.824 83.2188C93.2051 83.6829 93.0504 84.6112 92.8957 85.5394Z" fill="#AE9E83"/>
<path d="M105.736 81.6722V84.3022C106.664 82.6004 107.747 81.6722 108.676 81.6722C109.14 81.6722 109.449 81.8269 109.758 82.1363C110.068 82.4457 110.223 82.7551 110.223 83.0645C110.223 83.3739 110.068 83.6834 109.913 83.8381C109.758 83.9928 109.449 84.1475 109.14 84.1475C108.83 84.1475 108.521 83.9928 108.211 83.6834C107.902 83.3739 107.593 83.2192 107.438 83.2192C107.283 83.2192 107.129 83.3739 106.974 83.5287C106.664 83.8381 106.2 84.4569 105.736 85.2304V90.645C105.736 91.2639 105.891 91.728 106.046 92.0374C106.2 92.1921 106.355 92.5015 106.664 92.6562C106.974 92.8109 107.283 92.8109 107.902 92.8109V93.275H102.023V92.8109C102.642 92.8109 103.106 92.6562 103.261 92.5015C103.416 92.3468 103.57 92.1921 103.725 91.8827C103.725 91.728 103.725 91.2639 103.725 90.645V86.1586C103.725 84.7663 103.725 83.9928 103.57 83.8381C103.416 83.6834 103.416 83.3739 103.261 83.2192C103.106 83.0645 102.952 83.0645 102.642 83.0645C102.333 83.0645 102.023 83.0645 101.714 83.2192L101.559 82.7551L104.963 81.3628H105.736V81.6722Z" fill="#AE9E83"/>
<path d="M114.09 78.1142V81.8271H116.875V82.7553H114.245V90.1811C114.245 90.9546 114.4 91.4187 114.554 91.7281C114.709 92.0375 115.018 92.0375 115.328 92.0375C115.637 92.0375 115.792 91.8828 116.101 91.7281C116.411 91.5734 116.565 91.264 116.72 90.9546H117.184C116.875 91.7281 116.411 92.347 115.947 92.8111C115.483 93.2752 114.864 93.4299 114.245 93.4299C113.936 93.4299 113.471 93.2752 113.162 93.1205C112.853 92.9658 112.543 92.6564 112.388 92.1923C112.234 91.7281 112.079 91.264 112.079 90.3358V82.6006H110.223V82.1365C110.687 81.9818 111.151 81.6724 111.615 81.2083C112.079 80.7441 112.543 80.28 112.853 79.6612C113.007 79.3518 113.317 78.733 113.626 77.9595H114.09V78.1142Z" fill="#AE9E83"/>
<path d="M117.339 81.9819H122.599V82.446H122.29C121.98 82.446 121.671 82.6008 121.516 82.7555C121.361 82.9102 121.207 83.0649 121.207 83.3743C121.207 83.6837 121.361 84.1478 121.671 84.7666L124.455 90.4907L127.085 84.1478C127.24 83.8384 127.24 83.529 127.24 83.0649C127.24 82.9102 127.24 82.7555 127.085 82.7555C127.085 82.6008 126.931 82.6008 126.776 82.6008C126.621 82.6008 126.312 82.446 126.002 82.446V81.9819H129.715V82.446C129.406 82.446 129.097 82.6008 128.942 82.6008C128.787 82.7555 128.632 82.9102 128.323 83.2196C128.323 83.3743 128.168 83.6837 127.859 84.1478L123.218 95.5959C122.754 96.6788 122.135 97.6071 121.516 98.0712C120.743 98.69 120.124 98.8447 119.35 98.8447C118.886 98.8447 118.422 98.69 118.113 98.3806C117.803 98.0712 117.648 97.7618 117.648 97.4524C117.648 97.1429 117.803 96.8335 117.958 96.6788C118.113 96.5241 118.577 96.3694 118.886 96.3694C119.195 96.3694 119.505 96.5241 119.969 96.6788C120.278 96.8335 120.433 96.8335 120.588 96.8335C120.897 96.8335 121.052 96.6788 121.361 96.5241C121.671 96.3694 121.98 95.7506 122.29 94.9771L123.063 92.9659L118.886 84.3025C118.731 83.9931 118.577 83.6837 118.267 83.3743C118.113 83.0649 117.958 82.9102 117.803 82.7555C117.648 82.6008 117.339 82.446 116.875 82.446V81.9819H117.339Z" fill="#AE9E83"/>
<path d="M144.567 81.6719V85.5395H144.103C143.793 84.3018 143.329 83.5283 142.865 83.0642C142.401 82.6001 141.782 82.4454 141.009 82.4454C140.39 82.4454 139.926 82.6001 139.616 82.9095C139.307 83.2189 139.152 83.5283 139.152 83.9924C139.152 84.4566 139.307 84.9207 139.616 85.2301C139.926 85.5395 140.39 86.0036 141.163 86.313L143.02 87.2412C144.722 88.0148 145.495 89.0977 145.495 90.49C145.495 91.5729 145.031 92.3465 144.258 92.9653C143.484 93.5841 142.556 93.8935 141.628 93.8935C140.854 93.8935 140.081 93.7388 139.307 93.5841C138.998 93.4294 138.843 93.4294 138.688 93.4294C138.533 93.4294 138.379 93.5841 138.224 93.7388H137.76V89.7165H138.224C138.534 90.9541 138.843 91.7276 139.616 92.3465C140.235 92.9653 141.009 93.2747 141.782 93.2747C142.401 93.2747 142.865 93.12 143.175 92.8106C143.484 92.5012 143.793 92.0371 143.793 91.5729C143.793 90.9541 143.639 90.49 143.175 90.1806C142.711 89.7165 141.937 89.2524 140.699 88.6336C139.462 88.0147 138.688 87.5506 138.379 87.0865C138.069 86.6224 137.76 86.0036 137.76 85.2301C137.76 84.3019 138.069 83.5283 138.688 82.9095C139.307 82.2907 140.235 81.9813 141.163 81.9813C141.628 81.9813 142.092 82.136 142.865 82.2907C143.329 82.4454 143.639 82.4454 143.639 82.4454C143.793 82.4454 143.948 82.4454 143.948 82.2907C143.948 82.136 144.103 82.136 144.258 81.9813H144.567V81.6719Z" fill="#AE9E83"/>
<path d="M149.053 86.3129C149.053 88.0147 149.517 89.407 150.291 90.3352C151.065 91.2635 152.147 91.7276 153.23 91.7276C154.004 91.7276 154.623 91.5729 155.242 91.1088C155.86 90.6446 156.324 90.0258 156.634 88.9429L156.943 89.2523C156.789 90.3352 156.324 91.4182 155.396 92.3464C154.623 93.2746 153.54 93.7387 152.302 93.7387C150.91 93.7387 149.827 93.2746 148.744 92.1917C147.816 91.1088 147.352 89.7164 147.352 87.86C147.352 85.8488 147.816 84.4565 148.899 83.2188C149.827 82.1359 151.219 81.5171 152.612 81.5171C153.849 81.5171 154.932 81.9812 155.706 82.7547C156.479 83.5282 156.943 84.7659 156.943 86.1582H149.053V86.3129ZM149.053 85.5394H154.313C154.313 84.7659 154.159 84.3018 154.004 83.9924C153.849 83.5282 153.54 83.2188 153.076 82.9094C152.612 82.6 152.302 82.4453 151.838 82.4453C151.219 82.4453 150.6 82.7547 149.982 83.2188C149.363 83.6829 149.053 84.6112 149.053 85.5394Z" fill="#AE9E83"/>
<path d="M161.739 81.6722V84.3022C162.667 82.6004 163.75 81.6722 164.678 81.6722C165.143 81.6722 165.452 81.8269 165.761 82.1363C166.071 82.4457 166.226 82.7551 166.226 83.0645C166.226 83.3739 166.071 83.6834 165.916 83.8381C165.761 83.9928 165.452 84.1475 165.143 84.1475C164.833 84.1475 164.524 83.9928 164.214 83.6834C163.905 83.3739 163.596 83.2192 163.441 83.2192C163.286 83.2192 163.131 83.3739 162.977 83.5287C162.667 83.8381 162.203 84.4569 161.739 85.2304V90.645C161.739 91.2639 161.894 91.728 162.048 92.0374C162.203 92.1921 162.358 92.5015 162.667 92.6562C162.977 92.8109 163.286 92.8109 163.905 92.8109V93.275H158.026V92.8109C158.645 92.8109 159.109 92.6562 159.264 92.5015C159.419 92.3468 159.573 92.1921 159.728 91.8827C159.728 91.728 159.728 91.2639 159.728 90.645V86.1586C159.728 84.7663 159.728 83.9928 159.573 83.8381C159.573 83.5286 159.419 83.3739 159.264 83.2192C159.109 83.0645 158.954 83.0645 158.645 83.0645C158.336 83.0645 158.026 83.0645 157.717 83.2192L157.562 82.7551L160.966 81.3628H161.739V81.6722Z" fill="#AE9E83"/>
<path d="M166.38 81.9819H171.795V82.446H171.485C171.176 82.446 170.867 82.6008 170.712 82.7555C170.557 82.9102 170.403 83.0649 170.403 83.3743C170.403 83.6837 170.557 83.9931 170.712 84.4572L173.342 90.8001L175.972 84.3025C176.127 83.8384 176.281 83.529 176.281 83.2196C176.281 83.0649 176.281 83.0649 176.127 82.9102C175.972 82.7555 175.972 82.7555 175.817 82.6008C175.663 82.6008 175.353 82.6008 174.889 82.6008V82.1366H178.602V82.6008C178.138 82.6008 177.828 82.7555 177.674 82.9102C177.364 83.2196 177.055 83.529 176.9 84.1478L172.878 93.8941H172.414L168.391 84.3025C168.237 83.8384 168.082 83.529 167.927 83.3743C167.773 83.2196 167.618 83.0649 167.308 82.9102C167.154 82.9102 166.844 82.7555 166.535 82.7555V81.9819H166.38Z" fill="#AE9E83"/>
<path d="M183.707 81.6721V90.7997C183.707 91.5732 183.707 92.0373 183.862 92.192C184.017 92.5014 184.171 92.6561 184.326 92.6561C184.481 92.6561 184.945 92.8108 185.409 92.8108V93.2749H179.84V92.8108C180.458 92.8108 180.768 92.8108 180.922 92.6561C181.077 92.5014 181.232 92.3467 181.387 92.192C181.541 91.8826 181.541 91.4185 181.541 90.7997V86.468C181.541 85.2303 181.541 84.4568 181.387 83.9927C181.387 83.6833 181.232 83.5286 181.077 83.3739C180.922 83.2192 180.768 83.2192 180.613 83.2192C180.304 83.2192 180.149 83.2192 179.84 83.3739L179.685 82.9098L183.088 81.5174H183.707V81.6721ZM182.624 75.6387C182.934 75.6387 183.243 75.7934 183.552 75.9481C183.862 76.2575 183.862 76.5669 183.862 76.8763C183.862 77.1857 183.707 77.4951 183.552 77.8045C183.398 78.1139 182.934 78.1139 182.624 78.1139C182.315 78.1139 182.005 77.9592 181.696 77.8045C181.387 77.6498 181.387 77.1857 181.387 76.8763C181.387 76.5669 181.541 76.2575 181.696 75.9481C182.005 75.7934 182.315 75.6387 182.624 75.6387Z" fill="#AE9E83"/>
<path d="M196.548 89.0976C196.238 90.6446 195.619 91.7276 194.691 92.5011C193.763 93.2746 192.835 93.7387 191.752 93.7387C190.514 93.7387 189.276 93.1199 188.348 92.037C187.42 90.954 186.956 89.407 186.956 87.5506C186.956 85.6941 187.42 84.3018 188.503 83.2188C189.586 82.1359 190.823 81.5171 192.371 81.5171C193.453 81.5171 194.382 81.8265 195.155 82.4453C195.929 83.0641 196.238 83.683 196.238 84.3018C196.238 84.6112 196.083 84.9206 195.929 85.0753C195.774 85.23 195.465 85.3847 195 85.3847C194.536 85.3847 194.072 85.23 193.918 84.9206C193.763 84.7659 193.608 84.4565 193.608 83.9924C193.608 83.5282 193.453 83.0641 193.144 82.9094C192.835 82.6 192.525 82.6 191.906 82.6C191.133 82.6 190.359 82.9094 189.895 83.5282C189.276 84.3018 188.812 85.3847 188.812 86.777C188.812 88.1694 189.122 89.407 189.895 90.3352C190.514 91.4182 191.442 91.8823 192.68 91.8823C193.453 91.8823 194.227 91.5729 194.846 91.1088C195.31 90.7993 195.774 90.0258 196.238 89.0976H196.548Z" fill="#AE9E83"/>
<path d="M200.106 86.3129C200.106 88.0147 200.57 89.407 201.343 90.3352C202.117 91.2635 203.2 91.7276 204.283 91.7276C205.056 91.7276 205.675 91.5729 206.294 91.1088C206.913 90.6446 207.377 90.0258 207.686 88.9429L207.996 89.2523C207.841 90.3352 207.377 91.4182 206.449 92.3464C205.675 93.2746 204.592 93.7387 203.355 93.7387C201.962 93.7387 200.879 93.2746 199.796 92.1917C198.868 91.1088 198.404 89.7164 198.404 87.86C198.404 85.8488 198.868 84.4565 199.951 83.2188C200.879 82.1359 202.272 81.5171 203.664 81.5171C204.902 81.5171 205.985 81.9812 206.758 82.7547C207.532 83.5282 207.996 84.7659 207.996 86.1582H200.106V86.3129ZM200.106 85.5394H205.366C205.366 84.7659 205.211 84.3018 205.056 83.9924C204.902 83.5282 204.592 83.2188 204.128 82.9094C203.664 82.6 203.355 82.4453 202.89 82.4453C202.272 82.4453 201.653 82.7547 201.034 83.2188C200.57 83.8377 200.26 84.6112 200.106 85.5394Z" fill="#AE9E83"/>
<path d="M216.968 81.6719V85.5395H216.504C216.195 84.3018 215.731 83.5283 215.267 83.0642C214.803 82.6001 214.184 82.4454 213.41 82.4454C212.791 82.4454 212.327 82.6001 212.018 82.9095C211.709 83.2189 211.554 83.5283 211.554 83.9924C211.554 84.4566 211.709 84.9207 212.018 85.2301C212.327 85.5395 212.791 86.0036 213.565 86.313L215.421 87.2412C217.123 88.0148 217.897 89.0977 217.897 90.49C217.897 91.5729 217.433 92.3465 216.659 92.9653C215.886 93.5841 214.957 93.8935 214.029 93.8935C213.256 93.8935 212.482 93.7388 211.709 93.5841C211.399 93.4294 211.244 93.4294 211.09 93.4294C210.935 93.4294 210.78 93.5841 210.626 93.7388H210.161V89.7165H210.626C210.935 90.9541 211.244 91.7276 212.018 92.3465C212.637 92.9653 213.41 93.2747 214.184 93.2747C214.803 93.2747 215.267 93.12 215.576 92.8106C215.886 92.5012 216.195 92.0371 216.195 91.5729C216.195 90.9541 216.04 90.49 215.576 90.1806C215.112 89.8712 214.339 89.2524 213.101 88.6336C211.863 88.0147 211.09 87.5506 210.78 87.0865C210.471 86.6224 210.161 86.0036 210.161 85.2301C210.161 84.3019 210.471 83.5283 211.09 82.9095C211.709 82.2907 212.637 81.9813 213.565 81.9813C214.029 81.9813 214.493 82.136 215.267 82.2907C215.731 82.4454 216.04 82.4454 216.04 82.4454C216.195 82.4454 216.35 82.4454 216.35 82.2907C216.35 82.2907 216.504 82.136 216.659 81.9813H216.968V81.6719Z" fill="#AE9E83"/>
</svg>
